<svg width="1024" height="768" xmlns="http://www.w3.org/2000/svg">

 <g>
  <title>Layer 1</title>
  <polyline stroke-linecap="round" id="svg_1" points="1212.0000381469727,170.00001525878906 1212.0000381469727,170.00001525878906 " stroke="#000" fill="none"/>
  <polyline stroke-linecap="round" id="svg_2" points="0,0 0.9999990463256836,2 " stroke="#000" fill="none"/>
  <path id="svg_19" d="m799.99998,-1.00001c-5,145 225,174 224.00002,173.00001c0.99998,0.99999 -219.00002,-318 -224.00002,-173.00001z" opacity="NaN" stroke="#849854" fill="none"/>
  <path stroke-dasharray="5,2,2,2,2,2" id="svg_20" d="m247.49999,5.99999l-15.99999,77.00001l-216,91l555,133l197,-177l94,278l-619,145l-93,-214l666,214l193,176l-685,-2l-201,-249l832,-116l-927,-28l7,290l318,138l420,-268l-213,-396l-417,172l-103,-270l871,124l91,246l-171,308l-462,-62l-352,125l52,-330l526,-203l-328,-73l476,-79l144,190c0.99998,0.99999 -194.00002,85.99999 -196.00002,86.99999c-2,1 310,-38 309.00002,261.00001c0.99998,0.99999 -171.00002,-71.00001 -172,128c0.99998,0.99998 -306.00002,17.99998 -307,17c0.99998,0.99998 27.99998,-244.00001 27,-245c0.99998,0.99999 17.99998,-113.00001 17,-114c0.99998,0.99999 -118.00001,79.99999 -176.00001,115.99999c-58,36 -38,34 -38.99999,33.00001" opacity="NaN" stroke="#849854" fill="none"/>
 </g>
</svg>