<svg xmlns="http://www.w3.org/2000/svg" width="568" height="271" viewBox="0 0 568 271" fill="none">
  <g filter="url(#filter0_d_3_20)">
    <path d="M563.088 246.455C563.134 245.905 562.725 245.422 562.175 245.376L553.206 244.631C552.655 244.585 552.172 244.994 552.126 245.544C552.08 246.095 552.49 246.578 553.04 246.624L561.012 247.286L560.35 255.259C560.304 255.809 560.713 256.292 561.264 256.338C561.814 256.384 562.297 255.975 562.343 255.424L563.088 246.455ZM338.58 74.4372L338.407 75.422L338.58 74.4372ZM354.197 206.737L353.51 206.011L354.197 206.737ZM204.478 225.188L204.023 226.079L204.478 225.188ZM561.446 245.609C559.888 246.928 558.274 248.15 556.609 249.279L557.731 250.935C559.455 249.766 561.125 248.501 562.738 247.136L561.446 245.609ZM546.002 254.952C542.331 256.46 538.475 257.629 534.458 258.479L534.872 260.436C538.999 259.562 542.971 258.359 546.762 256.803L546.002 254.952ZM522.445 260.069C518.505 260.305 514.447 260.292 510.289 260.047L510.171 262.043C514.401 262.293 518.539 262.307 522.565 262.065L522.445 260.069ZM498.167 258.728C494.231 258.115 490.226 257.324 486.167 256.366L485.708 258.312C489.813 259.281 493.868 260.083 497.86 260.704L498.167 258.728ZM474.329 253.154C470.494 251.984 466.624 250.683 462.729 249.26L462.043 251.138C465.969 252.573 469.874 253.886 473.746 255.067L474.329 253.154ZM451.364 244.797C447.64 243.236 443.904 241.575 440.164 239.823L439.316 241.634C443.079 243.397 446.84 245.069 450.591 246.641L451.364 244.797ZM429.142 234.403C425.533 232.546 421.929 230.612 418.338 228.609L417.364 230.356C420.973 232.369 424.597 234.314 428.227 236.181L429.142 234.403ZM407.733 222.472C404.231 220.374 400.751 218.216 397.299 216.006L396.221 217.691C399.689 219.911 403.186 222.079 406.704 224.188L407.733 222.472ZM387.066 209.25C383.677 206.943 380.324 204.592 377.015 202.205L375.845 203.827C379.168 206.225 382.536 208.586 385.941 210.903L387.066 209.25ZM367.155 194.884C363.886 192.388 360.671 189.861 357.519 187.313L356.261 188.868C359.428 191.428 362.658 193.966 365.941 196.473L367.155 194.884ZM348.101 179.48C344.946 176.778 341.867 174.061 338.875 171.338L337.529 172.817C340.537 175.554 343.63 178.284 346.801 180.999L348.101 179.48ZM329.926 162.93C326.937 160.027 324.057 157.128 321.297 154.245L319.853 155.628C322.63 158.529 325.527 161.445 328.532 164.364L329.926 162.93ZM313.039 145.256C310.263 142.099 307.65 138.976 305.216 135.902L303.648 137.144C306.105 140.247 308.74 143.396 311.537 146.576L313.039 145.256ZM297.93 126.074C295.482 122.514 293.319 119.053 291.467 115.716L289.718 116.686C291.605 120.087 293.803 123.603 296.283 127.208L297.93 126.074ZM286.311 104.623C284.777 100.396 283.927 96.5043 283.806 93.0139L281.807 93.083C281.937 96.8377 282.847 100.94 284.431 105.306L286.311 104.623ZM286.78 82.0233C288.761 79.2822 291.801 77.0563 296.088 75.4921L295.403 73.6132C290.824 75.2837 287.422 77.721 285.159 80.8518L286.78 82.0233ZM307.88 73.1626C311.473 72.8865 315.506 72.8714 320.001 73.1418L320.122 71.1454C315.552 70.8705 311.426 70.8842 307.727 71.1685L307.88 73.1626ZM332.015 74.3973C334.073 74.692 336.203 75.0332 338.407 75.422L338.754 73.4524C336.53 73.0601 334.379 72.7155 332.299 72.4175L332.015 74.3973ZM338.407 75.422C340.452 75.7829 342.444 76.1597 344.383 76.552L344.779 74.5917C342.824 74.196 340.816 73.8161 338.754 73.4524L338.407 75.422ZM355.979 79.2429C360.079 80.3293 363.888 81.4981 367.42 82.7431L368.085 80.8568C364.498 79.5925 360.638 78.4084 356.492 77.3096L355.979 79.2429ZM378.381 87.261C382.252 89.1298 385.661 91.1188 388.639 93.2132L389.79 91.5772C386.712 89.4128 383.208 87.37 379.25 85.4599L378.381 87.261ZM397.404 100.998C400.134 104.142 402.152 107.452 403.541 110.896L405.396 110.149C403.92 106.489 401.782 102.99 398.914 99.6867L397.404 100.998ZM405.931 122.252C406.082 126.023 405.668 129.924 404.757 133.923L406.707 134.367C407.651 130.222 408.088 126.145 407.929 122.172L405.931 122.252ZM401.053 145.14C399.564 148.643 397.769 152.191 395.71 155.761L397.443 156.76C399.536 153.13 401.369 149.51 402.894 145.922L401.053 145.14ZM389.288 165.819C387.06 169.013 384.659 172.208 382.12 175.389L383.683 176.637C386.246 173.426 388.672 170.196 390.928 166.963L389.288 165.819ZM374.408 184.547C371.786 187.513 369.069 190.453 366.283 193.356L367.726 194.741C370.529 191.82 373.265 188.86 375.906 185.872L374.408 184.547ZM357.835 201.861C356.402 203.257 354.959 204.641 353.51 206.011L354.884 207.464C356.34 206.087 357.79 204.697 359.23 203.294L357.835 201.861ZM353.51 206.011C352.122 207.323 350.711 208.596 349.279 209.831L350.584 211.346C352.04 210.091 353.474 208.797 354.884 207.464L353.51 206.011ZM340.309 216.859C337.192 219.074 333.994 221.125 330.724 223.015L331.724 224.746C335.048 222.826 338.3 220.74 341.468 218.489L340.309 216.859ZM320.605 228.245C317.142 229.834 313.616 231.255 310.039 232.51L310.701 234.397C314.336 233.122 317.919 231.677 321.439 230.062L320.605 228.245ZM299.125 235.784C295.439 236.709 291.713 237.466 287.957 238.056L288.267 240.031C292.082 239.432 295.867 238.663 299.612 237.724L299.125 235.784ZM276.63 239.325C272.845 239.581 269.043 239.672 265.233 239.6L265.195 241.599C269.062 241.673 272.922 241.58 276.765 241.32L276.63 239.325ZM253.852 238.896C250.084 238.503 246.32 237.949 242.57 237.236L242.197 239.201C246.001 239.924 249.82 240.486 253.644 240.886L253.852 238.896ZM231.465 234.646C227.817 233.635 224.194 232.47 220.607 231.153L219.918 233.031C223.556 234.367 227.231 235.547 230.931 236.573L231.465 234.646ZM210.065 226.792C208.343 225.998 206.632 225.166 204.933 224.298L204.023 226.079C205.746 226.959 207.481 227.802 209.227 228.608L210.065 226.792ZM204.933 224.298C203.14 223.382 201.332 222.45 199.509 221.505L198.588 223.28C200.414 224.228 202.227 225.161 204.023 226.079L204.933 224.298ZM188.633 215.776C185.073 213.871 181.472 211.915 177.84 209.91L176.873 211.66C180.513 213.67 184.122 215.63 187.69 217.539L188.633 215.776ZM167.146 203.908C163.624 201.899 160.083 199.846 156.533 197.751L155.516 199.473C159.075 201.574 162.625 203.632 166.155 205.646L167.146 203.908ZM146.013 191.431C142.538 189.305 139.063 187.141 135.596 184.939L134.524 186.628C138.001 188.836 141.485 191.006 144.969 193.137L146.013 191.431ZM125.297 178.267C121.887 176.014 118.495 173.725 115.127 171.402L113.992 173.049C117.371 175.379 120.774 177.675 124.194 179.936L125.297 178.267ZM105.105 164.331C101.783 161.932 98.4948 159.501 95.2489 157.038L94.04 158.631C97.2991 161.104 100.6 163.545 103.934 165.952L105.105 164.331ZM85.5746 149.5C82.3652 146.929 79.2086 144.328 76.1135 141.697L74.8182 143.221C77.9289 145.865 81.1006 148.479 84.3243 151.061L85.5746 149.5ZM66.9015 133.608C63.8501 130.837 60.8739 128.036 57.9825 125.207L56.5839 126.637C59.4939 129.484 62.4882 132.302 65.5569 135.089L66.9015 133.608ZM49.4119 116.468C46.5873 113.46 43.866 110.423 41.2589 107.36L39.7359 108.657C42.3653 111.746 45.1084 114.807 47.9539 117.837L49.4119 116.468ZM33.5874 97.8251C31.0866 94.5242 28.7269 91.1961 26.5211 87.8429L24.8502 88.942C27.0819 92.3347 29.4674 95.699 31.9932 99.0329L33.5874 97.8251ZM20.2104 77.4055C18.2174 73.7885 16.4136 70.1462 14.8143 66.4812L12.9812 67.2811C14.6067 71.0061 16.438 74.7034 18.4587 78.3707L20.2104 77.4055ZM10.5365 55.0753C9.31313 51.1683 8.33417 47.2392 7.61725 43.2908L5.64942 43.6481C6.38187 47.682 7.38115 51.6914 8.62784 55.6729L10.5365 55.0753ZM6.2632 31.2268C6.09396 27.2018 6.21025 23.1587 6.63079 19.0999L4.64144 18.8938C4.21072 23.0507 4.09173 27.1909 4.26496 31.3108L6.2632 31.2268ZM8.74898 7.17407C9.24176 5.22323 9.80815 3.26901 10.4503 1.31172L8.54993 0.688275C7.89347 2.68928 7.31413 4.68806 6.80989 6.68426L8.74898 7.17407Z" fill="#95AF29"/>
  </g>
  <defs>
    <filter id="filter0_d_3_20" x="0.188416" y="0.688278" width="566.904" height="269.55" filterUnits="userSpaceOnUse" color-interpolation-filters="sRGB">
      <feFlood flood-opacity="0" result="BackgroundImageFix"/>
      <feColorMatrix in="SourceAlpha" type="matrix" values="0 0 0 0 0 0 0 0 0 0 0 0 0 0 0 0 0 0 127 0" result="hardAlpha"/>
      <feOffset dy="4"/>
      <feGaussianBlur stdDeviation="2"/>
      <feComposite in2="hardAlpha" operator="out"/>
      <feColorMatrix type="matrix" values="0 0 0 0 0 0 0 0 0 0 0 0 0 0 0 0 0 0 0.25 0"/>
      <feBlend mode="normal" in2="BackgroundImageFix" result="effect1_dropShadow_3_20"/>
      <feBlend mode="normal" in="SourceGraphic" in2="effect1_dropShadow_3_20" result="shape"/>
    </filter>
  </defs>
</svg>