<svg width="710" height="860" viewBox="0 0 710 860" fill="none" xmlns="http://www.w3.org/2000/svg">
<g clip-path="url(#clip0_4838_5312)">
<path opacity="0.05" d="M14.5971 421.941C4.61651 468.886 27.9553 510.394 42.8581 536.95C101.682 641.546 240.074 728.991 391.684 716.104C427.172 713.062 606.03 692.477 670.481 542.486C727.48 409.969 658.056 262.628 566.604 186.532C490.835 123.557 365.014 80.4815 278.844 126.031C224.671 154.714 243.092 188.311 154.282 276.59C77.4785 353.061 26.8325 364.569 14.5971 421.941Z" fill="white"/>
<path opacity="0.1" d="M152.822 713.286C184.182 747.131 229.725 751.782 258.847 754.781C373.619 766.493 518.986 706.182 592.836 579.911C610.102 550.34 692.994 398.394 610.833 264.671C538.274 146.482 384.042 119.424 273.593 149.136C182.14 173.793 78.601 248.802 66.6646 341.742C59.1968 400.197 95.8 404.332 115.977 523.015C133.526 625.722 114.517 671.893 152.822 713.286Z" fill="white"/>
<g clip-path="url(#clip1_4838_5312)">
<path d="M347.705 201.481C316.158 206.756 197.389 226.608 143.469 334.488C91.4192 438.569 119.851 584.622 208.206 642.136C350.084 734.419 576.805 553.256 566.271 479.124C562.363 451.388 526.284 446.623 520.224 408.734C510.652 348.782 593.683 316.452 586.037 271.87C577.145 220.425 452.825 183.898 347.705 201.481Z" fill="white"/>
<path d="M460.471 541.288C449.71 533.631 438.609 526.484 427.338 519.678C404.4 505.838 380.612 493.473 356.654 481.505C344.081 475.21 331.111 469.481 318.311 463.639C305.454 457.74 292.54 451.898 279.627 446.056C267.846 440.724 256.066 435.392 244.228 430.004C205.035 346.74 161.707 252.471 167.031 252.471L568.933 241.071C578.448 241.071 586.151 248.785 586.151 258.314V537.034C586.151 546.506 578.391 554.277 568.933 554.277H479.049C472.932 549.796 466.588 545.655 460.471 541.288Z" fill="#99B9FF"/>
<path d="M568.933 555.071H478.765L478.539 554.901C475.141 552.405 471.572 549.966 468.118 547.584C465.456 545.769 462.68 543.84 459.962 541.912C450.05 534.879 439.232 527.789 426.829 520.302C402.644 505.725 377.554 492.85 356.201 482.13C346.46 477.252 336.378 472.657 326.58 468.233C323.691 466.929 320.803 465.624 317.914 464.263C305.114 458.421 292.314 452.579 279.23 446.68C267.733 441.462 255.839 436.073 243.832 430.628L243.549 430.515L243.435 430.231C162.273 258.087 165.105 253.663 166.011 252.188C166.238 251.848 166.634 251.621 167.031 251.621L568.876 240.22C578.901 240.22 587 248.331 587 258.314V537.034C587 546.96 578.901 555.071 568.933 555.071ZM479.332 553.369H568.933C577.995 553.369 585.301 546.053 585.301 536.977V258.314C585.301 249.295 577.938 241.922 568.933 241.922L167.427 253.322C167.258 255.421 170.429 266.368 191.215 313.105C204.129 342.145 222.196 381.282 244.908 429.324C256.802 434.712 268.583 440.1 279.967 445.262C293.05 451.217 305.85 457.003 318.65 462.845C321.539 464.149 324.427 465.511 327.316 466.815C337.114 471.239 347.196 475.834 356.994 480.768C378.347 491.488 403.494 504.364 427.735 518.997C440.138 526.484 451.013 533.574 460.925 540.664C463.587 542.593 466.362 544.464 469.024 546.279C472.479 548.548 475.934 550.93 479.332 553.369Z" fill="#261D3F"/>
<path d="M153.664 241.185H560.72C569.726 241.185 576.975 248.501 576.975 257.463V536.921C576.975 545.939 569.669 553.199 560.72 553.199H153.664C144.659 553.199 137.409 545.883 137.409 536.921V257.52C137.409 248.501 144.715 241.185 153.664 241.185Z" fill="white"/>
<path d="M165.614 252.358H548.996C557.435 252.358 564.345 259.108 564.345 267.503V527.052C564.345 535.389 557.491 542.196 548.996 542.196H165.614C157.175 542.196 150.266 535.446 150.266 527.052V267.503C150.266 259.108 157.119 252.358 165.614 252.358Z" fill="#CADDFF"/>
<path d="M560.72 554.107H153.664C144.206 554.107 136.56 546.393 136.56 536.978V257.52C136.56 248.048 144.262 240.391 153.664 240.391L423.373 240.334C423.827 240.334 424.223 240.731 424.223 241.185C424.223 241.638 423.827 242.035 423.373 242.035H153.664C145.169 242.035 138.259 248.955 138.259 257.463V536.921C138.259 545.429 145.169 552.349 153.664 552.349H560.72C569.216 552.349 576.126 545.429 576.126 536.921V257.52C576.126 249.012 569.216 242.092 560.72 242.092L521.357 241.752C520.904 241.752 520.507 241.355 520.507 240.901C520.507 240.447 520.904 240.05 521.357 240.05L560.72 240.391C570.179 240.391 577.825 248.104 577.825 257.52V536.978C577.825 546.45 570.122 554.107 560.72 554.107Z" fill="#261D3F"/>
<path d="M563.722 277.599L564.175 268.126C564.175 259.789 557.038 253.096 548.543 253.096H165.331C156.892 253.096 149.926 259.732 149.926 268.126L149.473 279.754L563.722 277.599Z" fill="#99B9FF"/>
<path d="M166.52 271.019C169.242 271.019 171.448 268.81 171.448 266.085C171.448 263.359 169.242 261.15 166.52 261.15C163.799 261.15 161.593 263.359 161.593 266.085C161.593 268.81 163.799 271.019 166.52 271.019Z" fill="#CADDFF"/>
<path d="M182.209 270.735C184.93 270.735 187.136 268.526 187.136 265.801C187.136 263.076 184.93 260.866 182.209 260.866C179.487 260.866 177.281 263.076 177.281 265.801C177.281 268.526 179.487 270.735 182.209 270.735Z" fill="#CADDFF"/>
<path d="M199.2 271.359C201.921 271.359 204.127 269.15 204.127 266.425C204.127 263.7 201.921 261.49 199.2 261.49C196.479 261.49 194.272 263.7 194.272 266.425C194.272 269.15 196.479 271.359 199.2 271.359Z" fill="#CADDFF"/>
<path d="M247.456 366.251H190.932V380.602H247.456V366.251Z" fill="#99B9FF"/>
<path d="M483.069 366.875H282.175V381.226H483.069V366.875Z" fill="#99B9FF"/>
<path d="M246.833 437.775H190.309V452.125H246.833V437.775Z" fill="#99B9FF"/>
<path d="M482.389 438.399H281.495V452.749H482.389V438.399Z" fill="#99B9FF"/>
<path d="M245.53 507.994H189.006V522.344H245.53V507.994Z" fill="#99B9FF"/>
<path d="M481.087 508.618H280.192V522.968H481.087V508.618Z" fill="#99B9FF"/>
<path d="M334.508 391.151H281.892V405.501H334.508V391.151Z" fill="#99B9FF"/>
<path d="M528.832 391.775H341.814V406.125H528.832V391.775Z" fill="#99B9FF"/>
<path d="M333.885 414.747H281.269V429.097H333.885V414.747Z" fill="#99B9FF"/>
<path d="M528.209 415.428H341.191V429.778H528.209V415.428Z" fill="#99B9FF"/>
<path d="M247.456 296.77H190.932V311.12H247.456V296.77Z" fill="#99B9FF"/>
<path d="M483.069 297.394H282.175V311.744H483.069V297.394Z" fill="#99B9FF"/>
<path d="M334.565 321.67H281.948V336.02H334.565V321.67Z" fill="#99B9FF"/>
<path d="M528.832 322.294H341.814V336.644H528.832V322.294Z" fill="#99B9FF"/>
<path d="M333.885 345.322H281.269V359.672H333.885V345.322Z" fill="#99B9FF"/>
<path d="M528.209 345.946H341.191V360.296H528.209V345.946Z" fill="#99B9FF"/>
<path d="M333.885 461.994H281.269V476.344H333.885V461.994Z" fill="#99B9FF"/>
<path d="M528.209 462.675H341.191V477.025H528.209V462.675Z" fill="#99B9FF"/>
<path d="M333.205 485.646H280.589V499.997H333.205V485.646Z" fill="#99B9FF"/>
<path d="M527.53 486.271H340.512V500.621H527.53V486.271Z" fill="#99B9FF"/>
<path d="M246.323 360.523C265.217 360.523 280.533 345.185 280.533 326.264C280.533 307.343 265.217 292.005 246.323 292.005C227.43 292.005 212.114 307.343 212.114 326.264C212.114 345.185 227.43 360.523 246.323 360.523Z" fill="#3E80FA"/>
<path d="M246.323 361.374C227.01 361.374 211.265 345.606 211.265 326.264C211.265 306.923 227.01 291.155 246.323 291.155C265.637 291.155 281.382 306.923 281.382 326.264C281.382 345.606 265.694 361.374 246.323 361.374ZM246.323 292.856C227.916 292.856 212.964 307.83 212.964 326.264C212.964 344.698 227.916 359.672 246.323 359.672C264.731 359.672 279.683 344.698 279.683 326.264C279.683 307.83 264.731 292.856 246.323 292.856Z" fill="#261D3F"/>
<path d="M395.111 428.927C414.004 428.927 429.32 413.588 429.32 394.668C429.32 375.747 414.004 360.409 395.111 360.409C376.217 360.409 360.901 375.747 360.901 394.668C360.901 413.588 376.217 428.927 395.111 428.927Z" fill="#3E80FA"/>
<path d="M395.111 429.778C375.797 429.778 360.052 414.009 360.052 394.668C360.052 375.327 375.797 359.559 395.111 359.559C414.424 359.559 430.169 375.327 430.169 394.668C430.169 414.009 414.481 429.778 395.111 429.778ZM395.111 361.26C376.703 361.26 361.751 376.234 361.751 394.668C361.751 413.102 376.703 428.076 395.111 428.076C413.518 428.076 428.47 413.102 428.47 394.668C428.47 376.234 413.518 361.26 395.111 361.26Z" fill="#261D3F"/>
<path d="M337.114 362.678C356.007 362.678 371.323 347.34 371.323 328.419C371.323 309.499 356.007 294.161 337.114 294.161C318.22 294.161 302.904 309.499 302.904 328.419C302.904 347.34 318.22 362.678 337.114 362.678Z" fill="white"/>
<path d="M337.113 363.529C317.8 363.529 302.055 347.761 302.055 328.42C302.055 309.078 317.8 293.31 337.113 293.31C356.427 293.31 372.172 309.078 372.172 328.42C372.172 347.818 356.484 363.529 337.113 363.529ZM337.113 295.012C318.706 295.012 303.754 309.986 303.754 328.42C303.754 346.853 318.706 361.827 337.113 361.827C355.521 361.827 370.473 346.853 370.473 328.42C370.473 309.986 355.521 295.012 337.113 295.012Z" fill="#261D3F"/>
<path d="M544.975 291.381C544.918 291.041 544.578 290.814 544.238 290.814L539.254 290.757C538.971 290.757 538.688 290.587 538.574 290.304C538.178 289.396 537.725 288.545 537.272 287.695C537.102 287.468 537.159 287.127 537.272 286.9L540.16 282.817C540.387 282.533 540.33 282.136 540.104 281.909L537.158 278.676C536.932 278.393 536.535 278.336 536.252 278.506L531.891 280.945C531.665 281.115 531.325 281.058 531.098 280.888C530.305 280.321 529.512 279.754 528.663 279.3C528.436 279.13 528.266 278.903 528.266 278.619L528.719 273.628C528.776 273.288 528.55 272.947 528.21 272.834L524.075 271.473C523.735 271.359 523.396 271.529 523.226 271.813L520.677 276.124C520.507 276.351 520.224 276.521 519.941 276.464C518.978 276.351 518.015 276.294 517.052 276.294C516.769 276.294 516.486 276.124 516.372 275.897L514.277 271.359C514.107 271.019 513.767 270.849 513.427 270.962L509.179 271.87C508.84 271.926 508.613 272.21 508.613 272.607L508.556 277.598C508.556 277.882 508.386 278.166 508.103 278.279C507.197 278.676 506.348 279.13 505.498 279.584C505.271 279.754 504.932 279.697 504.705 279.584L500.627 276.691C500.344 276.464 499.947 276.521 499.721 276.748L496.493 279.697C496.209 279.924 496.153 280.321 496.323 280.605L498.758 284.972C498.928 285.199 498.871 285.539 498.701 285.766C498.135 286.56 497.569 287.354 497.116 288.205C496.946 288.432 496.719 288.602 496.436 288.602L491.452 288.148C491.112 288.092 490.772 288.318 490.659 288.659L489.3 292.799C489.186 293.14 489.356 293.48 489.639 293.65L493.944 296.202C494.17 296.373 494.34 296.656 494.284 296.94C494.17 297.904 494.114 298.868 494.114 299.833C494.114 300.116 493.944 300.4 493.717 300.513L489.186 302.612C488.846 302.782 488.677 303.122 488.79 303.463L489.696 307.773C489.753 308.114 490.092 308.34 490.432 308.34L495.416 308.397C495.7 308.397 495.983 308.567 496.096 308.851C496.493 309.758 496.946 310.609 497.399 311.46C497.569 311.687 497.512 312.027 497.399 312.254L494.51 316.338C494.284 316.622 494.34 317.019 494.567 317.245L497.512 320.479C497.739 320.762 498.135 320.819 498.418 320.649L502.779 318.21C503.006 318.04 503.346 318.096 503.572 318.266C504.365 318.834 505.158 319.401 506.008 319.855C506.234 320.025 506.404 320.252 506.404 320.535L505.951 325.527C505.894 325.867 506.121 326.207 506.461 326.321L510.595 327.682C510.935 327.795 511.275 327.625 511.445 327.342L513.994 323.031C514.164 322.804 514.447 322.634 514.73 322.691C515.693 322.804 516.656 322.861 517.618 322.861C517.902 322.861 518.185 323.031 518.298 323.258L520.394 327.795C520.564 328.136 520.903 328.306 521.243 328.192L525.491 327.285C525.831 327.228 526.058 326.945 526.058 326.548L526.114 321.556C526.114 321.273 526.284 320.989 526.567 320.876C527.473 320.479 528.323 320.025 529.173 319.571C529.399 319.401 529.739 319.458 529.966 319.571L534.043 322.464C534.327 322.691 534.723 322.634 534.95 322.407L538.178 319.458C538.461 319.231 538.518 318.834 538.348 318.55L535.912 314.183C535.743 313.956 535.799 313.615 535.969 313.389C536.535 312.594 537.102 311.8 537.555 310.95C537.725 310.723 537.951 310.553 538.235 310.553L543.219 311.006C543.559 311.063 543.898 310.836 544.012 310.496L545.371 306.355C545.484 306.015 545.314 305.675 545.031 305.505L540.727 302.952C540.5 302.782 540.33 302.498 540.387 302.215C540.5 301.251 540.557 300.286 540.557 299.322C540.557 299.038 540.727 298.755 540.953 298.641L545.484 296.543C545.824 296.373 545.994 296.032 545.881 295.692L544.975 291.381ZM518.355 314.126C510.312 314.693 503.346 308.624 502.779 300.57C502.213 292.516 508.273 285.539 516.316 284.972C524.358 284.405 531.325 290.474 531.891 298.528C532.514 306.525 526.397 313.559 518.355 314.126Z" fill="white"/>
<path d="M521.017 328.987C520.394 328.987 519.828 328.646 519.601 328.079L517.562 323.598C516.599 323.598 515.637 323.541 514.674 323.428L512.182 327.682C511.785 328.306 511.049 328.59 510.313 328.363L506.178 327.001C505.442 326.775 505.045 326.094 505.102 325.357L505.555 320.422C504.705 319.968 503.912 319.401 503.12 318.834L498.815 321.273C498.135 321.613 497.342 321.5 496.833 320.932L493.888 317.699C493.378 317.132 493.321 316.338 493.774 315.714L496.606 311.687C496.096 310.836 495.7 309.985 495.304 309.135L490.376 309.078C489.64 309.078 489.017 308.567 488.847 307.83L487.941 303.576C487.771 302.839 488.167 302.101 488.847 301.818L493.321 299.776C493.321 298.812 493.378 297.847 493.491 296.883L489.243 294.388C488.62 293.991 488.337 293.253 488.564 292.516L489.923 288.375C490.149 287.638 490.829 287.184 491.565 287.298L496.436 287.751C496.889 286.901 497.456 286.107 498.022 285.312L495.587 281.002C495.247 280.378 495.36 279.527 495.927 279.017L499.155 276.067C499.721 275.557 500.514 275.5 501.137 275.954L505.158 278.79C505.951 278.336 506.858 277.882 507.707 277.485L507.764 272.551C507.764 271.813 508.274 271.189 509.01 271.019L513.258 270.112C513.994 269.941 514.73 270.338 515.013 271.019L517.052 275.5C518.015 275.5 518.978 275.557 519.941 275.67L522.433 271.416C522.829 270.792 523.566 270.509 524.302 270.735L528.437 272.097C529.173 272.324 529.569 273.004 529.513 273.742L529.06 278.676C529.909 279.13 530.702 279.697 531.495 280.264L535.8 277.825C536.423 277.485 537.272 277.599 537.782 278.166L540.727 281.399C541.237 281.966 541.293 282.76 540.84 283.384L538.008 287.411C538.518 288.205 538.915 289.113 539.311 289.963L544.239 290.02C544.975 290.02 545.598 290.531 545.768 291.268L546.674 295.579C546.844 296.316 546.447 297.053 545.768 297.337L541.293 299.379C541.293 300.343 541.237 301.307 541.123 302.272L545.371 304.767C545.994 305.164 546.278 305.902 546.051 306.639L544.692 310.78C544.465 311.517 543.785 311.971 543.049 311.857L538.178 311.403C537.725 312.254 537.159 313.048 536.592 313.842L539.028 318.153C539.368 318.834 539.254 319.628 538.688 320.138L535.46 323.088C534.893 323.598 534.1 323.655 533.477 323.201L529.456 320.365C528.663 320.819 527.757 321.273 526.907 321.67L526.851 326.604C526.851 327.342 526.341 327.966 525.605 328.136L521.357 329.043C521.244 328.93 521.13 328.987 521.017 328.987ZM517.619 321.84C518.242 321.84 518.808 322.18 519.035 322.747L521.074 327.228L525.152 326.377L525.208 321.443C525.208 320.819 525.605 320.252 526.171 320.025C527.021 319.628 527.87 319.231 528.663 318.777C529.23 318.437 529.853 318.493 530.362 318.834L534.384 321.67L537.499 318.834L535.12 314.523C534.837 313.956 534.837 313.332 535.233 312.821C535.8 312.084 536.309 311.29 536.762 310.439C537.046 309.872 537.669 309.588 538.292 309.645L543.162 310.099L544.465 306.129L540.274 303.633C539.764 303.293 539.424 302.725 539.538 302.101C539.651 301.194 539.708 300.23 539.651 299.265C539.651 298.642 539.991 298.074 540.557 297.791L545.032 295.749L544.182 291.665L539.254 291.608C538.631 291.608 538.065 291.211 537.839 290.644C537.442 289.793 537.046 288.942 536.592 288.148C536.253 287.638 536.309 286.957 536.649 286.447L539.481 282.42L536.649 279.3L532.401 281.682C531.835 281.966 531.212 281.966 530.702 281.569C529.966 281.002 529.173 280.491 528.323 280.038C527.757 279.754 527.474 279.13 527.53 278.506L527.984 273.628L524.019 272.324L521.527 276.521C521.187 277.031 520.621 277.372 519.998 277.258C519.091 277.145 518.129 277.088 517.222 277.145C516.599 277.145 516.033 276.804 515.806 276.237L513.767 271.756L509.69 272.607L509.633 277.542C509.633 278.166 509.236 278.733 508.67 278.96C507.82 279.357 506.971 279.754 506.178 280.208C505.612 280.548 504.989 280.491 504.479 280.151L500.458 277.315L497.342 280.151L499.721 284.462C500.004 285.029 500.004 285.653 499.608 286.163C499.042 286.901 498.532 287.695 498.079 288.545C497.796 289.113 497.173 289.396 496.55 289.34L491.509 288.886L490.206 292.856L494.397 295.352C494.907 295.692 495.247 296.259 495.134 296.883C495.02 297.791 494.964 298.755 495.02 299.719C495.02 300.343 494.68 300.91 494.114 301.194L489.64 303.236L490.489 307.32L495.417 307.376C496.04 307.376 496.606 307.773 496.833 308.341C497.229 309.191 497.626 310.042 498.079 310.836C498.419 311.347 498.362 312.027 498.022 312.538L495.19 316.565L498.022 319.685L502.27 317.302C502.836 317.019 503.459 317.019 503.969 317.416C504.705 317.983 505.498 318.493 506.348 318.947C506.914 319.231 507.197 319.855 507.141 320.479L506.688 325.357L510.652 326.661L513.144 322.464C513.484 321.953 514.051 321.613 514.674 321.726C515.693 321.84 516.656 321.897 517.619 321.84ZM517.336 314.977C509.293 314.977 502.497 308.738 501.93 300.57C501.307 292.062 507.764 284.632 516.26 284.065C524.755 283.441 532.175 289.907 532.741 298.415C533.364 306.923 526.907 314.353 518.412 314.92C518.072 314.977 517.675 314.977 517.336 314.977ZM518.298 313.275L518.355 314.126L518.298 313.275C525.888 312.765 531.608 306.129 531.042 298.585C530.532 290.984 523.906 285.256 516.373 285.823C508.783 286.333 503.063 292.97 503.629 300.513C504.139 308.057 510.709 313.786 518.298 313.275Z" fill="#261D3F"/>
<path d="M511.842 231.429L509.236 224.055L500.797 225.019C499.891 223.431 498.872 221.9 497.739 220.538L501.704 212.995L495.813 207.89L488.96 212.995C487.374 212.087 485.788 211.293 484.089 210.613L483.806 202.105L476.16 200.63L472.762 208.457C470.949 208.457 469.137 208.571 467.324 208.854L462.793 201.594L455.43 204.203L456.393 212.711C454.807 213.619 453.278 214.64 451.919 215.774L444.386 211.747L439.289 217.646L444.386 224.509C443.48 226.097 442.687 227.742 442.007 229.387L433.512 229.67L432.039 237.327L439.855 240.731C439.855 242.546 439.968 244.361 440.252 246.176L433.059 250.713L435.664 258.087L444.103 257.123C445.009 258.711 446.029 260.242 447.161 261.604L443.197 269.147L449.087 274.252L455.94 269.147C457.526 270.055 459.112 270.849 460.811 271.529L461.094 280.037L468.74 281.512L472.139 273.685C473.951 273.685 475.763 273.571 477.576 273.288L482.107 280.548L489.47 277.939L488.507 269.431C490.093 268.523 491.622 267.502 492.981 266.368L500.514 270.395L505.612 264.496L500.514 257.633C501.42 256.045 502.213 254.4 502.893 252.755L511.389 252.472L512.861 244.814L505.045 241.411C505.045 239.596 504.932 237.781 504.649 235.966L511.842 231.429ZM479.105 260.129C468.627 263.816 457.186 258.257 453.505 247.821C449.823 237.327 455.317 225.87 465.795 222.183C476.273 218.497 487.714 224.055 491.395 234.492C495.077 244.985 489.583 256.442 479.105 260.129Z" fill="#3E80FA"/>
<path d="M468.797 282.42C468.74 282.42 468.684 282.42 468.627 282.42L460.981 280.945C460.584 280.888 460.301 280.548 460.301 280.151L460.018 272.154C458.659 271.586 457.299 270.962 455.997 270.225L449.597 274.99C449.257 275.216 448.86 275.216 448.52 274.933L442.63 269.828C442.347 269.544 442.234 269.147 442.46 268.807L446.198 261.774C445.292 260.639 444.443 259.392 443.706 258.087L435.777 258.995C435.381 259.051 434.984 258.824 434.871 258.427L432.265 251.054C432.152 250.657 432.265 250.26 432.605 250.033L439.345 245.779C439.119 244.304 439.005 242.829 439.005 241.355L431.699 238.178C431.359 238.008 431.133 237.611 431.189 237.214L432.662 229.557C432.719 229.16 433.058 228.876 433.455 228.876L441.384 228.593C441.951 227.232 442.574 225.87 443.31 224.566L438.552 218.156C438.326 217.816 438.326 217.419 438.609 217.079L443.706 211.18C443.989 210.896 444.386 210.783 444.726 211.01L451.749 214.753C452.882 213.846 454.128 212.995 455.43 212.258L454.524 204.317C454.467 203.92 454.694 203.523 455.09 203.409L462.453 200.8C462.85 200.687 463.246 200.8 463.473 201.141L467.721 207.89C469.193 207.663 470.666 207.55 472.138 207.55L475.31 200.233C475.48 199.893 475.877 199.666 476.273 199.723L483.919 201.197C484.316 201.254 484.599 201.594 484.599 201.991L484.882 209.989C486.241 210.556 487.601 211.18 488.903 211.917L495.303 207.153C495.643 206.926 496.04 206.926 496.379 207.21L502.27 212.314C502.553 212.598 502.666 212.995 502.44 213.335L498.702 220.369C499.608 221.503 500.457 222.751 501.194 224.055L509.123 223.148C509.519 223.091 509.916 223.318 510.029 223.715L512.635 231.089C512.748 231.486 512.635 231.883 512.295 232.109L505.555 236.363C505.781 237.838 505.895 239.313 505.895 240.788L513.201 243.964C513.541 244.134 513.767 244.531 513.711 244.928L512.238 252.585C512.181 252.982 511.842 253.266 511.445 253.266L503.516 253.549C502.949 254.911 502.326 256.272 501.59 257.577L506.348 263.986C506.574 264.326 506.574 264.723 506.291 265.064L501.194 270.962C500.91 271.246 500.514 271.359 500.174 271.133L493.151 267.389C492.018 268.297 490.772 269.147 489.47 269.885L490.376 277.826C490.432 278.223 490.206 278.62 489.809 278.733L482.447 281.342C482.05 281.456 481.654 281.342 481.427 281.002L477.179 274.252C475.707 274.479 474.234 274.592 472.762 274.592L469.59 281.909C469.476 282.25 469.137 282.42 468.797 282.42ZM461.944 279.414L468.287 280.605L471.402 273.401C471.515 273.061 471.855 272.891 472.195 272.891C473.951 272.891 475.707 272.777 477.462 272.494C477.802 272.437 478.142 272.607 478.312 272.891L482.447 279.527L488.507 277.372L487.601 269.544C487.544 269.204 487.714 268.864 488.054 268.694C489.583 267.786 491.055 266.822 492.415 265.688C492.698 265.461 493.038 265.461 493.378 265.574L500.287 269.261L504.479 264.383L499.778 258.087C499.551 257.803 499.551 257.463 499.721 257.123C500.627 255.591 501.364 254.003 501.987 252.358C502.1 252.018 502.383 251.848 502.723 251.791L510.539 251.508L511.728 245.155L504.535 242.035C504.195 241.922 504.026 241.582 504.026 241.241C504.026 239.483 503.912 237.725 503.629 235.966C503.572 235.626 503.742 235.286 504.026 235.116L510.652 230.975L508.5 224.906L500.854 225.927C500.514 225.984 500.174 225.814 500.004 225.473C499.098 223.885 498.135 222.41 497.002 221.106C496.776 220.822 496.776 220.482 496.889 220.198L500.571 213.279L495.7 209.081L489.413 213.789C489.13 214.016 488.79 214.016 488.45 213.846C486.921 212.938 485.335 212.201 483.693 211.577C483.353 211.464 483.183 211.18 483.126 210.84L482.843 203.012L476.5 201.821L473.385 209.025C473.271 209.308 472.931 209.535 472.592 209.535C470.892 209.535 469.08 209.648 467.324 209.932C466.984 209.989 466.645 209.819 466.475 209.535L462.34 202.899L456.28 205.054L457.186 212.882C457.243 213.222 457.073 213.562 456.733 213.732C455.204 214.64 453.731 215.604 452.372 216.738C452.089 216.965 451.749 216.965 451.409 216.852L444.613 212.882L440.421 217.759L445.122 224.055C445.349 224.339 445.349 224.679 445.179 225.02C444.273 226.551 443.536 228.139 442.913 229.784C442.8 230.124 442.517 230.294 442.177 230.351L434.361 230.635L433.172 236.987L440.365 240.107C440.704 240.22 440.874 240.561 440.874 240.901C440.874 242.659 440.988 244.418 441.271 246.176C441.327 246.516 441.158 246.857 440.874 247.027L434.248 251.167L436.4 257.236L444.159 256.329C444.499 256.272 444.839 256.442 445.009 256.783C445.915 258.371 446.878 259.845 448.011 261.15C448.237 261.434 448.237 261.774 448.124 262.057L444.443 268.977L449.313 273.174L455.6 268.467C455.883 268.24 456.223 268.24 456.563 268.41C458.092 269.318 459.678 270.055 461.321 270.679C461.66 270.792 461.83 271.076 461.887 271.416L461.944 279.414ZM472.422 262.114C469.307 262.114 466.248 261.434 463.36 260.016C458.319 257.577 454.524 253.323 452.655 248.048C448.86 237.158 454.581 225.133 465.455 221.333C470.723 219.461 476.386 219.801 481.427 222.24C486.468 224.679 490.263 228.933 492.132 234.208C495.926 245.098 490.206 257.123 479.331 260.923C477.123 261.717 474.744 262.114 472.422 262.114ZM472.478 221.843C470.326 221.843 468.174 222.184 466.078 222.921C456.053 226.438 450.786 237.441 454.298 247.48C455.997 252.358 459.508 256.215 464.096 258.484C468.74 260.696 473.951 260.98 478.765 259.278C488.79 255.762 494.057 244.758 490.546 234.719C488.847 229.841 485.335 225.984 480.747 223.715C478.142 222.524 475.31 221.843 472.478 221.843Z" fill="#261D3F"/>
<path d="M239.187 578.837L159.838 578.043C145.508 578.043 133.218 568.684 130.726 554.391L117.076 477.195C115.434 468.007 122.457 459.556 131.689 459.556H183.456L239.187 578.837Z" fill="#99B9FF"/>
<path d="M240.49 579.688L159.781 578.894C144.659 578.894 132.312 568.854 129.82 554.504L116.227 477.309C115.434 472.658 116.68 467.893 119.681 464.263C122.683 460.69 127.044 458.648 131.632 458.648H183.965L240.49 579.688ZM131.689 460.406C127.554 460.406 123.703 462.221 120.984 465.398C118.266 468.631 117.133 472.885 117.869 477.025L131.462 554.221C133.841 567.72 145.452 577.192 159.781 577.192L237.771 577.986L182.889 460.406H131.689Z" fill="#3E80FA"/>
<path d="M191.838 653.934H178.755V577.873L191.838 578.27V653.934Z" fill="#99B9FF"/>
<path d="M192.688 654.785H177.905V577.022L192.688 577.476V654.785ZM179.604 653.083H190.989V579.121L179.604 578.78V653.083Z" fill="#3E80FA"/>
<path d="M216.136 646.503H157.402C148.227 646.503 140.808 653.934 140.808 663.122H232.731C232.731 653.934 225.311 646.503 216.136 646.503Z" fill="#99B9FF"/>
<path d="M233.58 663.916H139.958V663.065C139.958 653.423 147.774 645.596 157.402 645.596H216.136C225.764 645.596 233.58 653.423 233.58 663.065V663.916ZM141.657 662.215H231.825C231.371 653.933 224.518 647.297 216.079 647.297H157.402C149.02 647.354 142.11 653.933 141.657 662.215Z" fill="#3E80FA"/>
<path d="M138.542 520.019C138.146 520.019 137.806 519.735 137.692 519.338L131.122 481.846C131.066 481.393 131.349 480.939 131.802 480.882C132.255 480.825 132.708 481.109 132.765 481.563L139.335 519.055C139.392 519.508 139.108 519.962 138.655 520.019C138.655 519.962 138.599 520.019 138.542 520.019Z" fill="#3E80FA"/>
<path d="M199.711 435.223C199.711 435.223 207.867 425.297 216.249 430.231C221.12 433.124 225.368 438.002 231.994 441.065C234.77 442.313 236.356 442.596 236.356 442.596C236.356 442.596 231.768 445.375 218.571 445.829C205.488 446.283 199.711 435.223 199.711 435.223Z" fill="#261D3F"/>
<path d="M222.99 426.601C216.306 425.524 212.228 418.888 210.982 415.201C210.133 412.705 210.586 411.344 210.812 410.777C211.719 408.735 213.984 407.997 214.947 407.657C223.443 404.594 223.783 398.128 230.409 397.448C235.79 396.88 235.903 401.078 244.852 401.872C246.664 402.042 249.439 402.099 252.215 403.914C253.574 404.764 255.443 406.012 255.726 407.657C256.009 409.359 254.65 411.911 237.149 421.27C227.124 426.545 225.255 426.942 222.99 426.601Z" fill="#261D3F"/>
<path d="M240.66 414.86C240.66 414.86 230.862 411.287 227.464 411.457C224.065 411.684 224.179 420.362 224.179 420.362C224.179 420.362 220.667 416.392 218.572 418.944C216.476 421.496 221.913 424.389 221.913 424.389L204.695 440.157L220.667 444.298L228.766 435.449C228.766 435.449 231.485 438.569 233.977 437.945C236.469 437.321 240.037 430.798 240.037 430.798C241.397 430.572 242.246 429.267 241.906 427.962L241.283 425.637C240.887 424.219 240.887 422.688 241.227 421.27C241.68 419.341 241.567 417.356 240.887 415.484L240.66 414.86Z" fill="white"/>
<path d="M220.724 445.149C220.667 445.149 220.554 445.149 220.497 445.149L204.525 441.008C204.242 440.951 204.016 440.668 203.902 440.384C203.846 440.101 203.902 439.76 204.129 439.533L220.497 424.503C219.364 423.765 217.609 422.347 217.269 420.702C217.099 419.852 217.325 419.058 217.892 418.377C218.515 417.64 219.308 417.243 220.157 417.186C221.347 417.129 222.479 417.81 223.329 418.434C223.499 415.598 224.292 410.776 227.35 410.55C230.919 410.323 240.49 413.839 240.887 414.009C241.113 414.066 241.283 414.293 241.396 414.52L241.623 415.144C242.359 417.129 242.529 419.341 242.02 421.44C241.68 422.744 241.736 424.106 242.076 425.41L242.699 427.736C242.926 428.586 242.812 429.494 242.303 430.288C241.906 430.912 241.283 431.366 240.604 431.593C239.641 433.237 236.696 438.172 234.203 438.853C232.051 439.42 229.899 437.775 228.823 436.754L221.347 444.922C221.177 445.092 220.95 445.149 220.724 445.149ZM206.508 439.76L220.441 443.39L228.2 434.939C228.37 434.769 228.596 434.655 228.823 434.655C229.049 434.655 229.276 434.769 229.446 434.939C230.126 435.676 232.165 437.605 233.75 437.151C235.28 436.754 237.998 432.784 239.301 430.401C239.414 430.175 239.641 430.004 239.924 429.948C240.32 429.891 240.66 429.664 240.887 429.324C241.113 428.983 241.17 428.586 241.057 428.189L240.434 425.864C240.037 424.276 239.981 422.631 240.377 421.099C240.83 419.341 240.717 417.526 240.037 415.825L239.924 415.598C236.979 414.52 229.956 412.251 227.407 412.365C225.425 412.478 224.915 417.81 224.915 420.419C224.915 420.759 224.688 421.099 224.349 421.213C224.009 421.326 223.612 421.27 223.386 420.986C222.933 420.476 221.347 419.001 220.157 419.001C220.157 419.001 220.157 419.001 220.101 419.001C219.704 419.001 219.364 419.171 219.081 419.568C218.855 419.852 218.741 420.192 218.798 420.476C219.025 421.667 221.007 423.085 222.14 423.709C222.366 423.822 222.536 424.106 222.593 424.332C222.649 424.616 222.536 424.9 222.31 425.07L206.508 439.76Z" fill="#261D3F"/>
<path d="M228.823 436.357C228.596 436.357 228.369 436.244 228.2 436.074C225.934 433.465 225.481 430.912 225.424 430.799C225.311 430.345 225.651 429.891 226.104 429.778C226.557 429.664 227.01 430.005 227.123 430.458C227.123 430.515 227.577 432.671 229.502 434.939C229.785 435.28 229.785 435.847 229.389 436.13C229.219 436.244 228.992 436.357 228.823 436.357Z" fill="#261D3F"/>
<path d="M246.041 638.222C247.174 637.088 253.687 616.726 253.687 616.726L266.601 625.971L252.441 645.029L246.041 638.222Z" fill="white"/>
<path d="M252.498 645.823C252.272 645.823 252.045 645.709 251.875 645.539L245.475 638.79C245.192 638.449 245.192 637.939 245.475 637.599C246.211 636.578 249.893 625.971 252.951 616.442C253.008 616.159 253.234 615.988 253.518 615.875C253.801 615.761 254.084 615.818 254.254 615.988L267.167 625.234C267.337 625.347 267.451 625.574 267.507 625.801C267.564 626.028 267.507 626.255 267.337 626.425L253.178 645.483C253.008 645.709 252.781 645.823 252.498 645.823ZM247.118 638.052L252.385 643.611L265.412 626.084L254.197 618.087C252.498 623.249 248.703 634.933 247.118 638.052Z" fill="#261D3F"/>
<path d="M269.319 663.916L260.767 663.86C255.103 663.803 249.836 660.91 246.721 656.146L238.225 642.703C235.903 638.96 237.206 634.082 241.057 631.983C244.625 630.111 248.307 628.24 249.156 628.353C250.912 628.523 251.648 636.861 251.648 636.861L259.294 637.145C259.294 637.145 263.089 652.856 266.374 654.671C268.81 655.976 270.509 657.904 271.641 659.606C272.831 661.534 271.472 663.916 269.319 663.916Z" fill="#261D3F"/>
<path d="M268.469 661.42C268.413 661.42 268.413 661.42 268.356 661.42L256.632 659.662C253.744 659.208 251.195 657.507 249.722 655.011L239.358 637.655C239.131 637.258 239.244 636.747 239.641 636.464C240.037 636.237 240.547 636.35 240.83 636.747L251.195 654.104C252.441 656.202 254.537 657.564 256.915 657.961L268.639 659.719C269.093 659.776 269.432 660.229 269.376 660.683C269.206 661.137 268.866 661.42 268.469 661.42Z" fill="white"/>
<path d="M253.97 648.375C253.574 648.375 253.234 648.148 253.177 647.751C253.064 647.297 253.347 646.844 253.8 646.73L260.314 644.972C260.767 644.858 261.22 645.142 261.333 645.596C261.446 646.049 261.163 646.503 260.71 646.617L254.197 648.375C254.14 648.375 254.027 648.375 253.97 648.375Z" fill="white"/>
<path d="M257.369 651.722C256.972 651.722 256.632 651.438 256.519 651.098C256.406 650.644 256.689 650.19 257.142 650.077L261.503 648.999C261.956 648.886 262.409 649.169 262.523 649.623C262.636 650.077 262.353 650.531 261.9 650.644L257.539 651.722C257.482 651.722 257.425 651.722 257.369 651.722Z" fill="white"/>
<path d="M290.105 634.309L305.058 649.396L312.987 646.447L299.224 627.219L290.105 634.309Z" fill="white"/>
<path d="M305.058 650.247C304.831 650.247 304.605 650.134 304.435 650.02L289.482 634.933C289.313 634.763 289.199 634.536 289.256 634.252C289.256 634.025 289.369 633.798 289.596 633.628L298.714 626.481C298.884 626.311 299.111 626.255 299.337 626.311C299.564 626.368 299.791 626.481 299.904 626.652L313.723 645.936C313.893 646.163 313.95 646.447 313.837 646.674C313.78 646.901 313.554 647.127 313.327 647.241L305.398 650.134C305.284 650.247 305.171 650.247 305.058 650.247ZM291.352 634.422L305.284 648.432L311.685 646.106L299.054 628.467L291.352 634.422Z" fill="#261D3F"/>
<path d="M300.357 647.014C300.357 647.014 299.62 653.423 300.866 659.095C301.546 662.101 304.265 664.257 307.323 664.257H344.081C346.686 664.257 347.876 660.967 345.893 659.265C339.38 653.764 327.316 645.426 312.534 642.93L308.399 648.716L300.357 647.014Z" fill="#261D3F"/>
<path d="M342.325 660.059H304.208C303.755 660.059 303.358 659.662 303.358 659.209C303.358 658.755 303.755 658.358 304.208 658.358H342.325C342.778 658.358 343.175 658.755 343.175 659.209C343.175 659.662 342.778 660.059 342.325 660.059Z" fill="white"/>
<path d="M321.029 653.253C320.916 653.253 320.803 653.253 320.69 653.196C320.237 653.026 320.067 652.516 320.237 652.062L322.275 647.184C322.445 646.73 322.955 646.56 323.408 646.73C323.861 646.9 324.031 647.411 323.861 647.865L321.822 652.743C321.709 653.083 321.369 653.253 321.029 653.253Z" fill="white"/>
<path d="M327.656 654.558C327.543 654.558 327.486 654.558 327.373 654.501C326.919 654.331 326.693 653.877 326.806 653.424L328.279 648.999C328.449 648.546 328.902 648.319 329.355 648.432C329.808 648.602 330.035 649.056 329.921 649.51L328.449 653.934C328.392 654.331 328.052 654.558 327.656 654.558Z" fill="white"/>
<path d="M210.812 528.867C210.812 528.867 279.287 520.869 299.62 538.509C319.953 556.149 267.507 632.04 267.507 632.04L250.912 619.732L266.657 566.075L203.336 548.095L210.812 528.867Z" fill="#261D3F"/>
<path d="M173.148 563.806C183.116 566.982 200.901 571.066 225.765 570.726C232.844 570.613 239.358 574.526 242.586 580.822C249.949 595.286 265.921 621.32 291.861 638.222L304.265 631.529L272.604 560.176C269.716 553.653 264.335 548.605 257.652 546.166L194.897 523.138C194.897 523.138 175.47 517.693 165.899 535.106C164.199 538.226 163.01 541.005 162.274 543.501C159.668 552.008 164.596 561.084 173.148 563.806Z" fill="#261D3F"/>
<path d="M286.877 593.244C286.537 593.244 286.254 593.073 286.084 592.733L271.754 560.516C268.979 554.22 263.712 549.286 257.255 546.96L227.237 535.9C226.784 535.73 226.557 535.276 226.727 534.822C226.897 534.369 227.35 534.142 227.803 534.312L257.821 545.372C264.675 547.868 270.338 553.2 273.284 559.836L287.613 592.109C287.783 592.563 287.613 593.017 287.16 593.244C287.103 593.244 286.99 593.244 286.877 593.244Z" fill="white"/>
<path d="M270.169 620.98C269.943 620.98 269.716 620.866 269.546 620.696C266.658 617.69 263.826 614.457 261.107 611.11C260.824 610.77 260.881 610.203 261.22 609.919C261.56 609.636 262.127 609.693 262.41 610.033C265.072 613.379 267.904 616.556 270.736 619.505C271.075 619.845 271.075 620.356 270.736 620.696C270.566 620.866 270.396 620.98 270.169 620.98Z" fill="white"/>
<path d="M261.786 611.451C261.56 611.451 261.276 611.337 261.106 611.11C259.804 609.465 258.445 607.764 257.142 606.006C256.859 605.609 256.915 605.098 257.312 604.814C257.708 604.531 258.218 604.588 258.501 604.985C259.804 606.686 261.106 608.388 262.409 610.033C262.692 610.373 262.636 610.94 262.296 611.224C262.126 611.394 261.956 611.451 261.786 611.451Z" fill="white"/>
<path d="M300.186 420.816C300.526 420.135 302.225 418.093 303.018 417.526L311.231 409.869C311.231 409.869 312.307 413.556 311.004 415.711C313.553 415.768 315.535 416.222 315.535 416.222C315.535 416.222 319.273 412.932 320.236 412.308C321.199 411.741 322.388 410.833 323.634 410.833C324.88 410.833 326.126 411.798 326.126 411.798L318.933 421.043L305.794 424.673L303.075 447.304L297.071 439.25L300.186 420.816Z" fill="white"/>
<path d="M303.075 448.155C302.792 448.155 302.565 448.042 302.395 447.815L296.392 439.761C296.278 439.59 296.222 439.363 296.222 439.137L299.337 420.703C299.337 420.646 299.393 420.533 299.393 420.476C299.79 419.682 301.546 417.583 302.452 416.903L310.664 409.302C310.891 409.075 311.174 409.018 311.457 409.132C311.74 409.189 311.967 409.416 312.024 409.699C312.08 409.813 312.873 412.649 312.194 415.031C313.553 415.144 314.629 415.314 315.252 415.428C316.215 414.577 318.933 412.252 319.726 411.741C319.84 411.684 320.01 411.571 320.123 411.514C321.086 410.89 322.275 410.153 323.578 410.153C325.107 410.153 326.466 411.174 326.58 411.287C326.749 411.401 326.863 411.628 326.919 411.854C326.919 412.081 326.863 412.308 326.749 412.478L319.5 421.667C319.387 421.837 319.217 421.894 319.047 421.951L306.473 425.41L303.811 447.474C303.755 447.815 303.528 448.098 303.188 448.212C303.188 448.155 303.131 448.155 303.075 448.155ZM297.977 439.08L302.452 445.092L304.944 424.56C305.001 424.219 305.227 423.936 305.567 423.822L318.424 420.249L324.88 412.081C324.484 411.911 324.031 411.741 323.634 411.741C322.785 411.741 321.879 412.308 321.086 412.819C320.916 412.932 320.802 412.989 320.689 413.102C320.066 413.499 317.631 415.598 316.102 416.903C315.875 417.073 315.648 417.129 315.365 417.073C315.365 417.073 313.383 416.676 311.004 416.562C310.721 416.562 310.438 416.392 310.268 416.108C310.098 415.825 310.155 415.541 310.268 415.258C310.891 414.237 310.834 412.705 310.721 411.514L303.585 418.15L303.528 418.207C302.905 418.661 301.376 420.419 300.979 421.1L297.977 439.08Z" fill="#261D3F"/>
<path d="M233.127 445.035C233.127 445.035 246.494 458.194 271.867 455.188C297.241 452.239 297.977 425.694 297.977 425.694H306.303C306.303 425.694 318.594 472.034 274.699 486.611C230.805 501.188 216.476 475.607 216.476 475.607L233.127 445.035Z" fill="#3E80FA"/>
<path d="M197.786 552.576C197.786 552.576 170.77 563.353 155.591 552.973C136.391 539.814 146.415 502.379 153.212 486.611C159.272 472.658 168.504 462.902 182.041 448.495C185.892 444.412 188.271 442.256 191.839 440.555C205.998 433.748 223.16 441.462 231.599 445.262C237.999 448.155 242.926 451.331 246.211 453.714C246.211 453.714 219.138 487.178 219.648 507.484C220.214 527.79 228.54 526.939 228.54 526.939C228.54 526.939 217.099 545.429 197.786 552.576Z" fill="#3E80FA"/>
<path d="M220.214 457.741C221.007 463.81 222.819 471.467 227.18 479.351C241.113 504.534 269.149 510.603 274.699 511.681L269.149 517.864C269.149 517.864 209.679 527.619 192.404 473.225C192.404 473.225 185.834 452.92 200.447 447.871C203.505 446.851 207.47 446.227 211.265 447.701C217.891 450.254 219.987 456.833 220.214 457.741Z" fill="#3E80FA"/>
<path d="M268.583 516.672C269.036 516.389 273.171 509.979 277.758 508.618C282.346 507.257 292.258 517.296 292.258 517.296L268.583 516.672Z" fill="white"/>
<path d="M292.201 518.147L268.526 517.523C268.13 517.523 267.847 517.24 267.733 516.899C267.62 516.559 267.79 516.219 268.017 515.992C268.13 515.878 268.356 515.538 268.583 515.254C270.055 513.383 273.567 508.902 277.418 507.767C282.346 506.293 291.691 515.595 292.767 516.672C292.994 516.899 293.107 517.296 292.937 517.637C292.881 517.92 292.541 518.147 292.201 518.147ZM270.339 515.822L290.049 516.332C286.197 512.759 280.59 508.618 277.985 509.356C274.926 510.32 271.868 513.893 270.339 515.822Z" fill="#261D3F"/>
<path d="M181.134 449.573C181.134 449.573 172.582 434.202 203.336 432.387C208.434 432.103 210.076 432.784 217.213 436.868C232.618 445.659 236.413 442.653 236.413 442.653L233.128 453.26L181.134 449.573Z" fill="#3E80FA"/>
<path d="M184.872 447.758C184.759 447.758 184.589 447.701 184.475 447.644C184.079 447.418 183.909 446.907 184.136 446.51C184.192 446.34 192.688 431.253 210.642 438.683C211.095 438.853 211.265 439.363 211.095 439.817C210.925 440.271 210.416 440.441 209.962 440.271C193.424 433.465 185.891 446.737 185.608 447.304C185.438 447.588 185.155 447.758 184.872 447.758Z" fill="#261D3F"/>
<path d="M219.704 508.335C219.534 508.335 219.364 508.278 219.194 508.165C218.118 507.37 193.424 489.107 189.743 468.744C189.686 468.291 189.969 467.837 190.422 467.78C190.875 467.723 191.328 468.007 191.385 468.461C194.953 488.143 219.93 506.633 220.214 506.803C220.61 507.087 220.667 507.597 220.384 507.994C220.214 508.221 219.93 508.335 219.704 508.335Z" fill="#261D3F"/>
<path d="M230.239 486.384C230.012 486.384 229.843 486.328 229.673 486.157C229.333 485.817 229.276 485.307 229.616 484.966C238.452 475.097 236.866 461.144 236.809 460.974C236.752 460.52 237.092 460.066 237.545 460.01C237.998 459.953 238.452 460.293 238.508 460.747C238.565 461.371 240.207 475.608 230.862 486.044C230.692 486.328 230.466 486.384 230.239 486.384Z" fill="#261D3F"/>
<path d="M228.823 483.605C228.54 483.605 228.2 483.435 228.087 483.151L219.648 466.249C219.421 465.852 219.591 465.341 220.044 465.114C220.441 464.887 220.95 465.057 221.177 465.511L229.616 482.414C229.843 482.811 229.673 483.321 229.22 483.548C229.106 483.548 228.936 483.605 228.823 483.605Z" fill="#261D3F"/>
<path d="M172.921 558.361C166.635 558.361 160.291 557.17 155.137 553.654C146.585 547.811 142.677 536.411 143.81 520.699C144.772 507.881 148.907 494.495 152.475 486.271C158.422 472.544 167.541 462.789 180.171 449.403C179.548 448.042 179.265 445.773 179.265 445.376C179.095 440.725 181.984 432.784 203.336 431.479C208.603 431.139 210.302 431.876 217.609 436.074C231.938 444.298 235.846 441.916 235.903 441.916C236.186 441.689 236.582 441.689 236.922 441.916C237.205 442.143 237.375 442.54 237.262 442.88L236.186 446.397C236.526 446.624 236.866 446.907 237.262 447.191C238.791 448.042 240.207 448.892 241.623 449.743C247.797 452.806 258.048 456.152 271.811 454.564C282.006 453.373 289.369 448.268 293.673 439.307C296.958 432.614 297.185 426.148 297.185 426.091C297.185 425.637 297.581 425.24 298.034 425.24H306.303C306.7 425.24 307.04 425.524 307.096 425.864C307.21 426.318 310.212 437.719 307.776 451.161C305.511 463.583 298.034 479.975 274.926 487.689L274.643 486.895L274.926 487.689C260.2 492.566 247.23 493.474 236.186 490.411C249.496 504.591 267.45 509.469 274.813 510.944C275.096 511 275.379 511.227 275.436 511.511C275.549 511.794 275.493 512.135 275.266 512.362L269.715 518.544C269.602 518.714 269.432 518.771 269.206 518.828C268.923 518.884 243.039 522.911 220.554 510.433C221.177 519.338 223.499 523.195 225.368 524.897C226.954 526.315 228.313 526.258 228.37 526.201C228.71 526.201 228.993 526.315 229.163 526.598C229.333 526.882 229.333 527.222 229.163 527.506C229.05 527.676 217.269 546.337 197.955 553.483C197.389 553.654 185.382 558.361 172.921 558.361ZM205.318 433.124C204.752 433.124 204.129 433.124 203.449 433.181C191.839 433.862 184.419 436.641 181.927 441.235C179.775 445.092 181.984 449.119 181.984 449.119C182.153 449.46 182.097 449.857 181.87 450.14C169.127 463.639 159.951 473.395 154.061 486.951C148.114 500.677 136.9 539.133 156.1 552.236C170.769 562.275 197.219 551.895 197.502 551.782C213.587 545.826 224.292 531.646 227.124 527.562C226.388 527.336 225.425 526.939 224.462 526.088C221.177 523.252 219.308 517.41 218.911 508.845C218.911 508.561 219.081 508.221 219.308 508.051C219.591 507.881 219.931 507.881 220.157 508.051C241.17 520.416 265.807 517.466 268.753 517.013L273.114 512.191C264.392 510.263 245.928 504.591 232.901 489.107C232.674 488.823 232.618 488.369 232.844 488.086C233.071 487.745 233.467 487.632 233.807 487.745C245.078 491.772 258.728 491.205 274.416 485.987C292.314 480.031 302.962 468.177 306.134 450.821C308.173 439.534 306.19 429.494 305.624 426.942H298.771C298.374 431.536 295.202 453.543 271.981 456.209C257.822 457.854 247.23 454.394 240.83 451.218C240.83 451.218 240.774 451.218 240.774 451.161C239.358 450.31 237.942 449.46 236.412 448.609C236.412 448.609 236.356 448.609 236.356 448.552C235.733 448.155 235.166 447.758 234.713 447.361L234.657 447.304C234.373 447.077 234.26 446.737 234.373 446.397L235.166 443.844C232.731 444.185 227.35 443.561 216.816 437.492C210.642 434.032 208.83 433.124 205.318 433.124Z" fill="#261D3F"/>
<path d="M350.821 515.594H300.47L337.794 458.081C338.983 456.266 340.966 455.188 343.175 455.188H384.067C386.672 455.188 388.258 457.967 386.842 460.123L350.821 515.594Z" fill="#261D3F"/>
<path d="M361.581 475.38C359.939 477.876 356.427 479.918 353.709 479.918C350.99 479.918 350.14 477.876 351.783 475.38C353.425 472.885 356.937 470.843 359.656 470.843C362.374 470.843 363.224 472.885 361.581 475.38Z" fill="white"/>
<path d="M347.026 520.415H260.766C258.558 520.415 256.745 518.6 256.745 516.388V515.197H351.047V516.388C351.047 518.6 349.235 520.415 347.026 520.415Z" fill="#261D3F"/>
<path d="M348.216 516.502H304.944C304.491 516.502 304.095 516.105 304.095 515.651C304.095 515.197 304.491 514.8 304.944 514.8H348.216C348.669 514.8 349.065 515.197 349.065 515.651C349.065 516.105 348.669 516.502 348.216 516.502Z" fill="white"/>
<path d="M373.023 520.472H184.136C180.624 520.472 177.906 524.159 178.302 528.356L191.329 666.298H200.731L192.575 536.807C192.405 534.539 193.934 532.553 195.803 532.553H357.957C360.789 532.553 363.055 535.446 362.828 538.906L354.729 667.092H364.131L377.384 526.371C377.724 523.251 375.685 520.472 373.023 520.472Z" fill="white"/>
<path d="M364.187 668H354.785C354.559 668 354.332 667.887 354.162 667.717C353.992 667.546 353.936 667.319 353.936 667.093L362.035 538.906C362.148 537.261 361.638 535.73 360.619 534.709C359.883 533.915 358.976 533.518 358.014 533.518H195.803C195.067 533.518 194.557 533.915 194.274 534.255C193.651 534.879 193.367 535.9 193.424 536.864L201.58 666.355C201.58 666.582 201.523 666.809 201.353 666.979C201.184 667.149 200.957 667.263 200.73 667.263H191.329C190.875 667.263 190.536 666.922 190.479 666.469L177.452 528.526C177.226 525.974 177.962 523.535 179.548 521.834C180.794 520.472 182.436 519.678 184.136 519.678H373.079C374.439 519.678 375.741 520.302 376.704 521.38C377.95 522.741 378.516 524.613 378.347 526.598L365.093 667.319C364.98 667.66 364.64 668 364.187 668ZM355.691 666.299H363.451L376.647 526.371C376.761 524.896 376.308 523.422 375.458 522.457C374.778 521.72 373.985 521.323 373.079 521.323H184.136C182.89 521.323 181.7 521.89 180.794 522.911C179.548 524.272 178.925 526.314 179.151 528.3L192.065 665.504H199.824L191.725 536.921C191.612 535.446 192.121 534.028 193.028 533.064C193.764 532.27 194.783 531.816 195.803 531.816H357.957C359.373 531.816 360.732 532.44 361.808 533.575C363.111 534.993 363.791 536.978 363.677 539.076L355.691 666.299Z" fill="#261D3F"/>
<path d="M293.56 235.796C293.22 235.796 292.937 235.626 292.767 235.286C292.54 234.889 292.767 234.378 293.163 234.151C330.318 216.398 378.346 210.499 409.384 212.541C409.837 212.598 410.234 212.995 410.177 213.449C410.12 213.902 409.724 214.243 409.271 214.243C378.403 212.201 330.771 218.1 293.9 235.739C293.843 235.739 293.73 235.796 293.56 235.796Z" fill="#261D3F"/>
<path d="M300.13 224.793C299.79 224.793 299.507 224.622 299.394 224.339C299.167 223.942 299.337 223.431 299.79 223.204C326.127 210.272 358.184 206.359 369.568 206.472C370.021 206.472 370.418 206.869 370.418 207.323C370.418 207.777 370.021 208.174 369.568 208.174C358.297 208.06 326.637 211.917 300.527 224.736C300.413 224.793 300.3 224.793 300.13 224.793Z" fill="#261D3F"/>
<path d="M439.572 596.987C439.289 596.987 439.063 596.874 438.893 596.647C438.609 596.25 438.723 595.739 439.119 595.456C454.015 585.189 466.872 574.129 477.236 562.615C477.576 562.275 478.086 562.218 478.426 562.558C478.766 562.899 478.822 563.409 478.482 563.749C468.061 575.32 455.091 586.494 440.082 596.817C439.912 596.93 439.742 596.987 439.572 596.987Z" fill="#261D3F"/>
<path d="M408.932 626.935C408.592 626.935 408.252 626.708 408.139 626.368C407.969 625.914 408.252 625.46 408.705 625.29C423.318 620.639 458.32 602.262 476.954 579.12C477.237 578.78 477.803 578.723 478.143 579.007C478.483 579.29 478.539 579.858 478.256 580.198C458.263 604.984 422.468 622.624 409.215 626.878C409.102 626.935 408.988 626.935 408.932 626.935Z" fill="#261D3F"/>
<path d="M400.549 609.863C400.492 609.863 400.436 609.863 400.379 609.863C399.926 609.749 399.643 609.295 399.7 608.842L400.492 605.041C400.606 604.588 401.059 604.304 401.512 604.361C401.965 604.474 402.248 604.928 402.192 605.382L401.399 609.182C401.285 609.579 400.946 609.863 400.549 609.863Z" fill="#261D3F"/>
<path d="M397.887 623.135C397.83 623.135 397.774 623.135 397.717 623.135C397.264 623.022 396.981 622.568 397.037 622.114L397.83 618.314C397.944 617.86 398.397 617.576 398.85 617.633C399.303 617.747 399.586 618.2 399.53 618.654L398.737 622.454C398.623 622.851 398.283 623.135 397.887 623.135Z" fill="#261D3F"/>
<path d="M394.942 613.549C394.885 613.549 394.828 613.549 394.772 613.549L391.034 612.755C390.581 612.642 390.297 612.188 390.411 611.734C390.524 611.281 390.977 610.997 391.43 611.11L395.168 611.905C395.621 612.018 395.905 612.472 395.791 612.925C395.678 613.323 395.338 613.549 394.942 613.549Z" fill="#261D3F"/>
<path d="M407.968 616.442C407.911 616.442 407.855 616.442 407.798 616.442L404.06 615.648C403.607 615.534 403.324 615.081 403.437 614.627C403.55 614.173 404.003 613.89 404.457 614.003L408.195 614.797C408.648 614.911 408.931 615.364 408.818 615.818C408.704 616.158 408.365 616.442 407.968 616.442Z" fill="#261D3F"/>
<path d="M426.432 608.955C425.809 608.955 425.186 608.841 424.563 608.614C423.26 608.104 422.184 607.083 421.618 605.722C420.428 602.999 421.674 599.823 424.336 598.632C425.639 598.065 427.055 598.008 428.358 598.518C429.66 599.029 430.736 600.05 431.303 601.411C432.492 604.134 431.246 607.31 428.584 608.501C427.905 608.785 427.168 608.955 426.432 608.955ZM425.016 600.163C423.204 600.957 422.354 603.169 423.204 605.041C423.6 605.949 424.28 606.629 425.186 606.97C426.092 607.31 426.998 607.31 427.905 606.913C429.717 606.119 430.567 603.907 429.717 602.035C429.321 601.127 428.641 600.447 427.735 600.107C426.828 599.766 425.866 599.766 425.016 600.163Z" fill="#261D3F"/>
</g>
<circle cx="72.1477" cy="737.201" r="9.41819" fill="#3E80FA"/>
<circle cx="637.24" cy="590.042" r="9.41819" fill="#3E80FA"/>
<circle cx="152.202" cy="134.437" r="9.41819" fill="white"/>
<path d="M598.403 212.797C594.338 216.241 589.486 218.087 584.252 218.369C582.501 218.531 580.979 217.179 580.927 215.335C580.765 213.585 582.117 212.062 583.961 212.011C587.757 211.814 591.451 210.383 594.418 207.87C595.187 207.218 595.753 206.55 596.429 205.789C597.561 204.452 599.515 204.307 600.851 205.44C602.188 206.572 602.333 208.525 601.2 209.862C600.288 211.012 599.392 211.96 598.403 212.797Z" fill="#3E80FA"/>
<path d="M81.1648 341.717C85.643 344.604 88.822 348.708 90.6158 353.633C91.2801 355.261 90.43 357.111 88.6817 357.697C87.0544 358.362 85.2039 357.512 84.6176 355.763C83.3241 352.189 80.8793 349.071 77.6114 346.965C76.7641 346.419 75.9599 346.072 75.0347 345.647C73.4263 344.953 72.719 343.126 73.413 341.518C74.107 339.909 75.9334 339.202 77.5418 339.896C78.9082 340.434 80.0755 341.015 81.1648 341.717Z" fill="#3E80FA"/>
<path d="M579.152 738.459C583.63 741.345 586.809 745.45 588.603 750.375C589.267 752.002 588.417 753.852 586.669 754.439C585.042 755.103 583.191 754.253 582.605 752.504C581.311 748.93 578.867 745.812 575.599 743.706C574.751 743.16 573.947 742.813 573.022 742.388C571.414 741.694 570.706 739.868 571.4 738.259C572.094 736.651 573.921 735.943 575.529 736.637C576.895 737.175 578.063 737.756 579.152 738.459Z" fill="white"/>
</g>
<defs>
<clipPath id="clip0_4838_5312">
<rect width="710" height="860" fill="white"/>
</clipPath>
<clipPath id="clip1_4838_5312">
<rect width="471" height="471" fill="white" transform="translate(116 197)"/>
</clipPath>
</defs>
</svg>
